<svg viewBox="0 0 65.18518518518516 60.98159084264226" xmlns="http://www.w3.org/2000/svg" style="width:500px;height:auto;">
  <g transform="matrix(0.7626495596646053,0,0,0.7626495596646053,-5.727944578026816,-4.935833550855833)" fill="#000000">
    <g>
      <path d="M50.6,26.31c-0.4-0.13-0.82-0.13-1.21,0c-7.19,2.28-15.75,8.15-15.75,23.171c0,10.59,5.4,18.38,15.6,22.539   c0.24,0.101,0.5,0.15,0.76,0.15s0.51-0.05,0.75-0.15c10.21-4.159,15.6-11.949,15.6-22.539C66.35,34.46,57.78,28.59,50.6,26.31z    M54.63,51H52v2.17c0,1.1-0.89,2-2,2c-1.1,0-2-0.9-2-2V51h-2.62c-1.11,0-2-0.89-2-2c0-1.1,0.89-2,2-2H48v-3.08c0-1.1,0.9-2,2-2   c1.11,0,2,0.9,2,2V47h2.63c1.101,0,2,0.9,2,2C56.63,50.11,55.73,51,54.63,51z"></path>
      <path d="M66.85,75.167c-6.499,0-12.588-1.087-17.609-3.144c-0.752-0.308-1.243-1.04-1.242-1.852c0-0.812,0.493-1.544,1.245-1.851   c8.697-3.548,13.107-9.886,13.107-18.837c0-10.116-4.361-16.631-12.964-19.362c-0.83-0.264-1.394-1.034-1.395-1.905   s0.562-1.642,1.392-1.906c4.042-1.289,7.837-1.481,9.74-1.481c18.031,0,30.332,7.102,32.905,18.998   c1.674,7.74-1.256,15.83-6.987,20.462c1.036,0.211,2.096,0.316,3.173,0.316l0,0c0.452,0,0.909-0.018,1.371-0.055   c0.777-0.062,1.539,0.346,1.916,1.042s0.308,1.548-0.176,2.174C87.963,72.124,77.898,75.167,66.85,75.167z M55.222,69.787   c3.542,0.908,7.484,1.38,11.628,1.38c6.974,0,13.096-1.308,17.075-3.025c-1.503-0.332-2.966-0.842-4.377-1.525   c-0.698-0.338-1.138-1.05-1.128-1.825s0.467-1.476,1.174-1.796c6.377-2.894,10.122-10.942,8.525-18.322   c-1.03-4.764-5.918-15.844-28.995-15.844c-0.675,0-1.62,0.027-2.74,0.134c5.32,3.359,9.967,9.46,9.967,20.521   C66.351,58.398,62.524,65.334,55.222,69.787z"></path>
      <path d="M33.095,75.17c-2.298,0-4.625-0.138-6.941-0.419c-8.359-1.014-14.894-3.626-17.481-6.986   c-0.482-0.626-0.55-1.478-0.173-2.173c0.377-0.695,1.134-1.101,1.916-1.041c1.558,0.124,3.078,0.034,4.548-0.266   c-5.562-4.527-8.525-12.399-7.097-19.946c1.027-5.429,5.947-18.188,29.401-19.418c1.095-0.062,2.044,0.789,2.102,1.893   c0.058,1.103-0.789,2.044-1.892,2.102c-20.624,1.082-24.83,11.667-25.681,16.167c-1.391,7.354,2.307,15.055,8.602,17.913   c0.706,0.321,1.163,1.021,1.173,1.796s-0.43,1.487-1.128,1.825c-1.4,0.679-2.85,1.185-4.338,1.517   c7.398,3.147,21.876,4.803,33.134,0.189c1.022-0.419,2.189,0.07,2.609,1.092c0.418,1.022-0.07,2.19-1.093,2.609   C45.721,74.087,39.527,75.17,33.095,75.17z"></path>
    </g>
  </g>
</svg>
